<svg xmlns="http://www.w3.org/2000/svg" xmlns:xlink="http://www.w3.org/1999/xlink" id="Layer_1" x="0" y="0" version="1.1" viewBox="0 0 24 24" style="enable-background:new 0 0 24 24" xml:space="preserve"><title>performance-increase</title><g><path d="M0.75,24C0.336,24,0,23.663,0,23.25s0.336-0.75,0.75-0.75H1.5V18c0-0.827,0.673-1.5,1.5-1.5h3c0.827,0,1.5,0.673,1.5,1.5 v4.5H9v-9c0-0.827,0.673-1.5,1.5-1.5h3c0.827,0,1.5,0.673,1.5,1.5v9h1.5v-12C16.5,9.672,17.173,9,18,9h3c0.827,0,1.5,0.673,1.5,1.5 v12h0.75c0.414,0,0.75,0.336,0.75,0.75S23.664,24,23.25,24H0.75z M21,22.5v-12h-3l0,12H21z M13.5,22.5v-9h-3l0,9H13.5z M6,22.5V18 H3l0,4.5H6z"/><path d="M4.182,9.991c-0.294,0-0.562-0.173-0.683-0.44C3.416,9.368,3.409,9.165,3.48,8.977s0.21-0.336,0.392-0.419L18.291,2.01 l-1.487-0.558c-0.387-0.145-0.584-0.578-0.438-0.966c0.109-0.291,0.391-0.487,0.702-0.487c0.09,0,0.179,0.016,0.264,0.048 l3.181,1.194c0.092,0.034,0.175,0.086,0.247,0.153c0.005,0.005,0.01,0.01,0.016,0.015c0.061,0.058,0.116,0.135,0.156,0.223 c0.015,0.033,0.026,0.065,0.035,0.098c0.002,0.004,0.008,0.023,0.013,0.042c0.008,0.036,0.013,0.071,0.016,0.106 c0.001,0.012,0.003,0.025,0.003,0.035C21,1.961,20.998,1.999,20.993,2.037c0,0.001-0.003,0.026-0.003,0.027 c-0.008,0.049-0.021,0.097-0.038,0.143l-1.194,3.183c-0.109,0.291-0.391,0.487-0.702,0.487c-0.09,0-0.179-0.016-0.264-0.048 c-0.187-0.07-0.336-0.209-0.419-0.392s-0.09-0.386-0.019-0.574l0.558-1.487L4.492,9.923C4.394,9.968,4.29,9.991,4.182,9.991z"/></g></svg>